<?xml version="1.0" encoding="UTF-8"?>
<svg xmlns="http://www.w3.org/2000/svg" width="16px" height="16px"
     viewBox="0 0 16 16" version="1.1">
    <g id="surface1">
        <rect x="0" y="0" width="16" height="16"
              style="fill:rgb(12.941176%,12.941176%,12.941176%);fill-opacity:1;stroke:none;"/>
        <path style=" stroke:none;fill-rule:nonzero;fill:rgb(96.078431%,94.117647%,94.117647%);fill-opacity:1;"
              d="M 10.890625 3.816406 C 10.363281 3.816406 9.863281 4.0625 9.546875 4.484375 L 9.21875 4.917969 C 9.085938 5.09375 8.875 5.203125 8.652344 5.203125 L 2.8125 5.203125 L 2.8125 12.183594 L 5.101562 12.183594 C 5.632812 12.183594 6.128906 11.9375 6.445312 11.515625 L 6.773438 11.082031 C 6.90625 10.90625 7.121094 10.796875 7.339844 10.796875 L 13.1875 10.796875 L 13.1875 3.816406 Z M 11.371094 8.980469 L 8.921875 8.980469 C 8.394531 8.980469 7.894531 9.226562 7.578125 9.648438 L 7.25 10.085938 C 7.117188 10.261719 6.90625 10.367188 6.683594 10.367188 L 4.628906 10.367188 L 4.628906 7.019531 L 7.078125 7.019531 C 7.605469 7.019531 8.105469 6.773438 8.421875 6.351562 L 8.75 5.914062 C 8.882812 5.738281 9.09375 5.632812 9.316406 5.632812 L 11.378906 5.632812 Z M 11.371094 8.980469 "/>
    </g>
</svg>
